<?xml version="1.0" encoding="utf-8"?>
<!-- Generator: Adobe Illustrator 16.0.0, SVG Export Plug-In . SVG Version: 6.00 Build 0)  -->
<!DOCTYPE svg PUBLIC "-//W3C//DTD SVG 1.1//EN" "http://www.w3.org/Graphics/SVG/1.1/DTD/svg11.dtd">
<svg version="1.1" xmlns="http://www.w3.org/2000/svg" xmlns:xlink="http://www.w3.org/1999/xlink" x="0px" y="0px" width="250px"
	 height="250px" viewBox="0 0 250 250" enable-background="new 0 0 250 250" xml:space="preserve">
<g id="Layer_4">
	<path fill="#FFFFFF" d="M226.287,48.886c-0.011,0.009-0.296-0.223-0.643-0.512c0.074-0.123,0.143-0.25,0.236-0.363
		c0.017-0.021-3.855-3.185-3.887-3.146c-0.072,0.088-0.122,0.187-0.183,0.281c-0.052-0.022-0.101-0.039-0.13-0.031
		c-1.072,0.307-1.458,1.81-2.046,2.646c-0.976,1.388-2.205,2.647-3.36,3.886c0.054-0.058,3.781,3.259,3.887,3.146
		c0.838-0.898,1.634-1.833,2.425-2.772c0.486,0.407,0.991,0.812,1.044,0.772c0.785-0.585,1.055-1.435,1.278-2.315
		C225.307,49.9,225.749,49.358,226.287,48.886z"/>
	<path id="svg_51" marker-end="" marker-start="" marker-mid="" fill="#D3961C" d="M1,126C1,56.939,56.715,1,125.5,1
		S250,56.939,250,126s-55.715,125-124.5,125S1,195.061,1,126z"/>
</g>
<g id="Layer_3">
	<path fill="#FFFFFF" d="M231.547,57.73c-0.33-0.267-1.505-1.56-1.959-1.554c-2.961,0.04-6.186-0.342-9.094,0.281
		c0.265-0.057,1.715,1.42,1.928,1.593c0.236,0.191,1.637,1.623,1.959,1.554c2.907-0.623,6.132-0.241,9.094-0.281
		C233.076,59.329,231.849,57.975,231.547,57.73z"/>
	<path fill="#FFFFFF" d="M243.318,52.136c-0.029,0.008-0.583-0.495-0.559-0.475c-0.454-0.375-0.911-0.747-1.369-1.118
		c-0.458-0.371-0.917-0.74-1.378-1.107c0.005,0.005-0.52-0.462-0.581-0.447c-0.879,0.228-3.194,0.676-2.969,1.969
		c0.017,0.092,0.532,0.453,0.559,0.475c0.454,0.375,0.911,0.747,1.369,1.118c0.458,0.371,0.917,0.74,1.378,1.107
		c0,0,0.57,0.39,0.581,0.447C240.123,52.812,242.438,52.363,243.318,52.136z"/>
	<path fill="#FFFFFF" d="M237.798,58.455c-0.056-0.224-0.183-0.613-0.245-0.998c0.007-0.161,0.013-0.322,0.022-0.483
		c0.052-0.128,0.107-0.258,0.149-0.369c0.005-0.014-0.021-0.048-0.049-0.083c0,0,0-0.001,0.001-0.002
		c0.431,0.459,0.863,0.804,1.298,0.804c-0.424,0-0.852-0.353-1.281-0.819c0.03-0.03,0.054-0.065,0.094-0.087
		c-0.031,0.017-0.198-0.104-0.414-0.278c-0.739-0.875-1.486-1.916-2.241-1.956c-0.519-0.452-1.136-0.965-1.231-0.913
		c-0.301,0.164-0.317,0.578-0.248,1.005c-0.004,0.057,0.008,0.116,0.008,0.172c-0.038,1.09-0.004,2.177,0.162,3.26
		c0.015,0.089,0.536,0.456,0.559,0.475c0.454,0.375,0.911,0.747,1.369,1.118c0.458,0.371,0.917,0.74,1.378,1.107
		c-0.003-0.003,0.572,0.393,0.581,0.447c-0.005-0.03-0.006-0.061-0.011-0.091c0.156,0.11,0.328,0.239,0.339,0.278
		c-0.006-0.024-0.008-0.048-0.014-0.072c0.063,0.05,0.116,0.098,0.139,0.135C237.688,60.321,238.01,59.314,237.798,58.455z
		 M237.259,56.045c-0.542-0.448-1.312-1.15-1.399-1.221c-0.06-0.048-0.371-0.331-0.727-0.641
		C235.834,54.223,236.543,55.192,237.259,56.045z"/>
	<path fill="#FFFFFF" d="M233.291,52.505c-0.454-0.375-0.911-0.747-1.369-1.118c-0.458-0.371-0.917-0.74-1.378-1.107
		c-0.001,0-0.203-0.18-0.371-0.312c0.376-0.511,0.72-1.039,0.958-1.645c0.03-0.078-0.54-0.536-1.069-0.943
		c0.241-0.374,0.49-0.742,0.726-1.12c0.04-0.064-1.82-1.506-1.928-1.593c-0.103-0.083-1.968-1.54-1.959-1.554
		c-0.347,0.557-0.735,1.086-1.063,1.656c-0.025,0.045,0.594,0.546,1.138,0.976c-0.36,0.684-0.835,1.29-1.319,1.903
		c-0.198,0.25-0.37,0.52-0.545,0.786c-0.537-0.443-1.491-1.239-1.564-1.298c-0.105-0.085-1.909-1.603-1.959-1.554
		c-0.037,0.037-0.065,0.079-0.102,0.117c-0.213-0.16-0.389-0.266-0.461-0.242c-0.939,0.312-1.364,1.409-1.764,2.231
		c-0.676,1.392-1.655,2.574-2.705,3.706c0.424,0.343,0.849,0.687,1.272,1.03c1.012,0.903,2.304,2.076,2.614,2.117
		c0.76,0.1,1.607-0.491,2.351-0.906c0.24,0.18,0.432,0.32,0.472,0.353c0.038,0.031,0.248,0.186,0.51,0.38
		c0.483,0.391,0.966,0.782,1.449,1.173c0.243-0.695,0.663-1.294,0.984-1.935c0.277-0.373,0.6-0.701,0.981-0.931
		c0.412,0.323,0.695,0.547,0.69,0.554c0.082-0.11,0.151-0.228,0.229-0.34c1.147,0.937,2.884,2.323,2.896,2.309
		c0.771-0.965,1.57-1.959,2.844-2.219C233.814,52.987,233.271,52.488,233.291,52.505z"/>
	<linearGradient id="SVGID_1_" gradientUnits="userSpaceOnUse" x1="-0.5" y1="125" x2="250.5" y2="125">
		<stop  offset="0" style="stop-color:#F39200"/>
		<stop  offset="0.1417" style="stop-color:#F49900"/>
		<stop  offset="0.3741" style="stop-color:#F8AD00"/>
		<stop  offset="0.6685" style="stop-color:#FFCA00"/>
		<stop  offset="1" style="stop-color:#FFED00"/>
	</linearGradient>
	<rect fill="none" stroke="url(#SVGID_1_)" stroke-miterlimit="10" width="250" height="250"/>
	<path fill="none" d="M0,0v250h250V0H0z M233.84,64.51c0,0.01,0,0.01,0,0.02c0,0.99-0.07,1.98-0.229,2.94
		c-0.12,0.72-0.261,1.43-0.431,2.13c-0.02,0.1-0.04,0.21-0.069,0.32c-0.49,2.31-1.221,4.77-2.29,7.46c0.27,2.5-2.7,6.99-4.891,9.94
		c-0.41,0.71-0.83,1.43-1.279,2.17c0.09,0.09,0.14,0.15,0.13,0.17c-2.78,4.2-5.59,8.38-8.54,12.46c-1.58,2.2-3.73,6.49-6.37,8.27
		c-1.75,2.23-3.63,4.57-5.64,7.02c-0.73,1.04-1.561,1.96-2.391,2.89c-0.63,0.76-1.28,1.53-1.93,2.31c-0.15,0.19-0.29,0.39-0.43,0.6
		c-0.471,0.69-1.051,1.28-1.65,1.85c-0.021,0.02-0.03,0.04-0.05,0.05c-1.08,1.291-2.21,2.6-3.37,3.94
		c-0.45,0.76-0.91,1.521-1.53,2.13c-0.29,0.29-0.75,0.63-1.189,0.99c-0.5,0.58-1.011,1.17-1.53,1.76c0,0.011,0,0.011-0.01,0.011
		c-0.45,0.64-1,1.17-1.511,1.72c-0.02,0.02-0.04,0.03-0.05,0.05c-0.229,0.24-0.45,0.49-0.66,0.75c-0.01,0.01-0.01,0.021-0.02,0.03
		c-0.26,0.34-0.49,0.689-0.67,1.1c0-0.05-0.05-0.109-0.13-0.2c-0.351,0.391-0.7,0.771-1.051,1.17
		c-0.029,0.04-0.069,0.091-0.109,0.12c-2.01,2.261-4.101,4.59-6.28,6.99c-9.18,10.12-16.99,19.08-23.78,27.03
		c-0.71,1.229-1.72,2.359-2.72,3.319c-0.15,0.141-0.3,0.271-0.45,0.4c0,0.01-0.01,0.01-0.01,0.01c-5.72,6.74-10.68,12.7-15.13,17.99
		c-0.03,0.061-0.061,0.13-0.1,0.19c-0.841,1.449-1.99,2.55-2.921,3.88c-0.909,1.319-2.18,2.21-3.279,3.34
		c-0.5,0.58-1,1.16-1.49,1.72c-0.28,0.32-0.55,0.641-0.83,0.96c-1.66,1.891-3.25,3.67-4.79,5.351c0,0,0,0-0.01,0.01
		c-0.33,0.979-1.04,1.88-2.22,2.53c-0.11,0.06-0.23,0.13-0.36,0.21c-1.65,1.72-3.25,3.33-4.84,4.819c-0.42,0.521-0.9,0.96-1.45,1.33
		c-0.01,0.021-0.01,0.021-0.02,0.021c-0.6,0.54-1.19,1.06-1.79,1.56c-0.73,0.63-1.46,1.23-2.2,1.811c-0.01,0.01-0.01,0.01-0.02,0.02
		c-0.17,0.14-0.34,0.28-0.52,0.41c-0.09,0.07-0.18,0.14-0.27,0.2c-0.4,0.319-0.81,0.63-1.22,0.92c-0.42,0.319-0.84,0.62-1.26,0.91
		c-0.58,0.83-1.45,1.47-2.61,1.729c-0.18,0.12-0.36,0.23-0.54,0.34c-0.1,0.09-0.2,0.181-0.32,0.261c-1.02,0.76-2.25,1.489-3.54,1.93
		c-0.02,0-0.03,0-0.04,0.01c-1.8,0.94-3.68,1.79-5.66,2.58c-1.03,0.63-2.01,1.39-3.2,1.73c-2.27,0.64-4.56,1.199-6.88,1.64
		c-0.57,0.11-1.14,0.22-1.71,0.31c-1.78,0.44-3.65,0.851-5.61,1.24c-0.25,0.12-0.52,0.23-0.8,0.311c-2.42,0.689-5.75,1.54-8.79,1.46
		c-0.87,0.119-1.74,0.21-2.61,0.25c-0.66,0.1-1.33,0.189-2.02,0.279c-0.04,0.03-0.09,0.061-0.14,0.09
		c-1.45,0.881-2.87,0.921-4.06,0.45c-1.19,0.15-2.41,0.3-3.66,0.44c-0.14,0.13-0.23,0.21-0.25,0.21c-0.05-0.05-0.1-0.11-0.14-0.16
		c-0.01,0-0.01,0-0.02,0c-0.86,0.15-1.73,0.31-2.58,0.5c-0.68,0.16-1.17,0.15-1.55-0.03c-2.29,0.25-4.67,0.5-7.15,0.75
		c-0.01,0-0.01,0-0.02,0c-19.31,3.74-3.47-33.51-1.72-185.459c6.4-1.82,17.79-8.38,37.08-23.1c8.71-6.64,14.85-8.68,18.93-7.15
		c0.94,0,1.89-0.03,2.84-0.08c0.01,0.01,0.01,0.01,0.01,0c0.38-0.1,0.8-0.16,1.15-0.08c0.75-0.55,1.77-0.64,2.64-0.21
		c0.17-0.02,0.33-0.04,0.49-0.05c0.2-0.09,0.41-0.17,0.63-0.23c0.04-0.02,0.08-0.03,0.12-0.05c0.78-0.29,1.71-0.25,2.56-0.02
		c1.69-0.13,3.33-0.21,4.88-0.15c0.48-0.05,1-0.02,1.54,0.13c3.22,0.38,5.99,1.6,7.96,4.58c0.05,0.07,0.1,0.14,0.13,0.21
		c0,0,0.02,0.01,0.02,0.02c0.07,0.11,0.14,0.23,0.2,0.35c0.96,1.61,1.7,3.7,2.19,6.35c0.29,1.23,0.47,2.55,0.51,3.89
		c0.32,3.72,0.27,8.3-0.2,13.93c0.061,1.16,0.07,2.31-0.23,3.58c-0.05,0.22-0.11,0.43-0.18,0.62c-0.27,2.43-0.61,5.04-1.02,7.83
		c-0.14,7.34-2,14.75-3.98,22.07c-0.8,3.83-1.68,7.89-2.66,12.19c0,0.01,0,0.01,0,0.02c-0.08,0.54-0.21,1.1-0.38,1.66
		c0,0.01,0,0.01,0,0.01c-1.27,5.51-2.68,11.41-4.26,17.72c0,0.01,0,0.01,0,0.01c-0.03,0.45-0.1,0.9-0.23,1.35
		c-0.32,1.14-0.64,2.3-0.98,3.46c-0.58,2.28-1.18,4.61-1.8,7c-0.12,0.47-0.24,0.939-0.36,1.4c-0.08,0.949-0.32,1.869-0.71,2.72
		c-0.1,0.39-0.2,0.78-0.31,1.16c-0.02,0.05-0.03,0.1-0.04,0.159c-0.33,1.311-0.65,2.561-0.97,3.761c0,0.01,0,0.02,0,0.02
		c-0.17,1.44-0.49,2.88-0.88,4.28c-0.28,1.03-0.62,2.01-1.01,2.979c-0.57,2.21-1.08,4.171-1.53,5.91c0.06,0.94-0.02,1.9-0.34,2.74
		c-0.19,0.5-0.81,2.271-0.89,2.38c0-0.04,0.04-0.2,0.14-0.56c-0.1,0.319-0.21,0.64-0.34,0.95c-1.9,7.34-2.07,8-2.09,8.06
		c21.04-22.771,51.63-55.74,95.88-103.21c48.45-51.98,39.39-37.46,8.99-0.05c0.899-0.94,1.84-1.86,2.8-2.74
		c-0.15-0.12-0.26-0.2-0.28-0.2c1.771-1.86,2.99-3.97,5.04-5.58c-0.06-0.05-0.109-0.08-0.12-0.08c0.23-0.02,0.391-0.14,0.53-0.28
		c-0.12-0.11-0.25-0.22-0.28-0.22c0.2-0.04,0.29-0.22,0.5-0.25c0.011-0.01,0.04,0.02,0.07,0.03c0.771-1.28,1.67-2.48,2.43-3.77
		c0,0.04,0.11,0.14,0.29,0.29c0.32-0.26,0.65-0.51,0.96-0.8c0.07,0,0.601,0.42,1.091,0.83c0.14,0.05,0.27,0.1,0.409,0.17
		c0.54,0.25,1.07,0.76,1.561,1.21c0.479-0.76,0.939-1.51,1.399-2.25l1.45,1.17c0.431,0.31,0.891,0.64,1.3,0.94
		c0.29-0.65,0.58-1.31,0.91-1.95c0.561,0.45,1.12,0.91,1.681,1.36c0.6,0.4,1.229,0.82,1.659,1.17c-0.039-0.88-0.069-1.77-0.05-2.65
		l2.71,2.19c0.551,0.36,1.021,0.69,1.181,0.95l0.029,0.06c0.73,1.2,0.811,2.95,0.591,4.77C233.91,60.4,233.97,62.41,233.84,64.51z"
		/>
	<linearGradient id="SVGID_2_" gradientUnits="userSpaceOnUse" x1="34.5977" y1="132.7471" x2="233.9102" y2="132.7471">
		<stop  offset="0" style="stop-color:#F39200"/>
		<stop  offset="0.1417" style="stop-color:#F49900"/>
		<stop  offset="0.3741" style="stop-color:#F8AD00"/>
		<stop  offset="0.6685" style="stop-color:#FFCA00"/>
		<stop  offset="1" style="stop-color:#FFED00"/>
	</linearGradient>
	<linearGradient id="SVGID_3_" gradientUnits="userSpaceOnUse" x1="34.0977" y1="132.7471" x2="234.4102" y2="132.7471">
		<stop  offset="0" style="stop-color:#F39200"/>
		<stop  offset="0.1417" style="stop-color:#F49900"/>
		<stop  offset="0.3741" style="stop-color:#F8AD00"/>
		<stop  offset="0.6685" style="stop-color:#FFCA00"/>
		<stop  offset="1" style="stop-color:#FFED00"/>
	</linearGradient>
	<path fill="url(#SVGID_2_)" stroke="url(#SVGID_3_)" stroke-miterlimit="10" d="M233.84,64.51c0,0.01,0,0.01,0,0.02
		c0,0.99-0.07,1.98-0.229,2.94c-0.12,0.72-0.261,1.43-0.431,2.13c-0.02,0.1-0.04,0.21-0.069,0.32c-0.49,2.31-1.221,4.77-2.29,7.46
		c0.27,2.5-2.7,6.99-4.891,9.94c-0.41,0.71-0.83,1.43-1.279,2.17c0.09,0.09,0.14,0.15,0.13,0.17c-2.78,4.2-5.59,8.38-8.54,12.46
		c-1.58,2.2-3.73,6.49-6.37,8.27c-1.75,2.23-3.63,4.57-5.64,7.02c-0.73,1.04-1.561,1.96-2.391,2.89c-0.63,0.76-1.28,1.53-1.93,2.31
		c-0.15,0.19-0.29,0.39-0.43,0.6c-0.471,0.69-1.051,1.28-1.65,1.85c-0.021,0.02-0.03,0.04-0.05,0.05c-1.08,1.291-2.21,2.6-3.37,3.94
		c-0.45,0.76-0.91,1.521-1.53,2.13c-0.29,0.29-0.75,0.63-1.189,0.99c-0.5,0.58-1.011,1.17-1.53,1.76c0,0.011,0,0.011-0.01,0.011
		c-0.45,0.64-1,1.17-1.511,1.72c-0.02,0.02-0.04,0.03-0.05,0.05c-0.229,0.24-0.45,0.49-0.66,0.75c-0.01,0.01-0.01,0.021-0.02,0.03
		c-0.26,0.34-0.49,0.689-0.67,1.1c0-0.05-0.05-0.109-0.13-0.2c-0.351,0.391-0.7,0.771-1.051,1.17
		c-0.029,0.04-0.069,0.091-0.109,0.12c-2.01,2.261-4.101,4.59-6.28,6.99c-9.18,10.12-16.99,19.08-23.78,27.03
		c-0.71,1.229-1.72,2.359-2.72,3.319c-0.15,0.141-0.3,0.271-0.45,0.4c0,0.01-0.01,0.01-0.01,0.01c-5.72,6.74-10.68,12.7-15.13,17.99
		c-0.03,0.061-0.061,0.13-0.1,0.19c-0.841,1.449-1.99,2.55-2.921,3.88c-0.909,1.319-2.18,2.21-3.279,3.34
		c-0.5,0.58-1,1.16-1.49,1.72c-0.28,0.32-0.55,0.641-0.83,0.96c-1.66,1.891-3.25,3.67-4.79,5.351c0,0,0,0-0.01,0.01
		c-0.33,0.979-1.04,1.88-2.22,2.53c-0.11,0.06-0.23,0.13-0.36,0.21c-1.65,1.72-3.25,3.33-4.84,4.819c-0.42,0.521-0.9,0.96-1.45,1.33
		c-0.01,0.021-0.01,0.021-0.02,0.021c-0.6,0.529-1.19,1.06-1.79,1.56c-0.73,0.63-1.46,1.23-2.2,1.811
		c-0.01,0.01-0.01,0.01-0.02,0.02c-0.17,0.14-0.34,0.28-0.52,0.41c-0.09,0.07-0.18,0.14-0.27,0.2c-0.41,0.31-0.81,0.62-1.22,0.92
		c-0.42,0.319-0.84,0.62-1.26,0.91c-0.58,0.83-1.45,1.47-2.61,1.729c-0.18,0.12-0.36,0.23-0.54,0.34c-0.1,0.09-0.2,0.181-0.32,0.261
		c-1.02,0.76-2.25,1.489-3.54,1.93c-0.02,0-0.03,0-0.04,0.01c-1.8,0.94-3.68,1.79-5.66,2.58c-1.03,0.63-2.01,1.39-3.2,1.73
		c-2.27,0.64-4.56,1.199-6.88,1.64c-0.57,0.11-1.14,0.22-1.71,0.31c-1.78,0.44-3.65,0.851-5.61,1.24c-0.25,0.12-0.52,0.23-0.8,0.311
		c-2.42,0.689-5.75,1.54-8.79,1.46c-0.87,0.119-1.74,0.21-2.61,0.25c-0.66,0.1-1.33,0.189-2.02,0.279
		c-0.04,0.03-0.09,0.061-0.14,0.09c-1.45,0.881-2.87,0.921-4.06,0.45c-1.19,0.15-2.41,0.3-3.66,0.44c-0.14,0.13-0.23,0.21-0.25,0.21
		c-0.05-0.05-0.1-0.11-0.14-0.16c-0.01,0-0.01,0-0.02,0c-0.86,0.15-1.73,0.31-2.58,0.5c-0.68,0.16-1.17,0.15-1.55-0.03
		c-2.29,0.25-4.67,0.5-7.15,0.75c-0.01,0-0.01,0-0.02,0c-19.31,3.74-3.47-33.51-1.72-185.459c6.4-1.82,17.79-8.38,37.08-23.1
		c8.71-6.64,14.85-8.68,18.93-7.15c0.94,0,1.89-0.03,2.84-0.08c0.01,0.01,0.01,0.01,0.01,0c0.38-0.1,0.8-0.16,1.15-0.08
		c0.75-0.55,1.77-0.64,2.64-0.21c0.17-0.02,0.33-0.04,0.49-0.05c0.2-0.09,0.41-0.17,0.63-0.23c0.04-0.02,0.08-0.03,0.12-0.05
		c0.78-0.29,1.71-0.25,2.56-0.02c1.69-0.13,3.33-0.21,4.88-0.15c0.48-0.05,1-0.02,1.54,0.13c3.22,0.38,5.99,1.6,7.96,4.58
		c0.05,0.07,0.09,0.14,0.13,0.21c0,0,0.02,0.01,0.02,0.02c0.07,0.11,0.14,0.23,0.2,0.35c0.96,1.61,1.7,3.7,2.19,6.35
		c0.29,1.23,0.47,2.55,0.51,3.89c0.32,3.72,0.27,8.3-0.2,13.93c0.061,1.16,0.07,2.31-0.23,3.58c-0.05,0.22-0.11,0.43-0.18,0.62
		c-0.27,2.43-0.61,5.04-1.02,7.83c-0.14,7.34-2,14.75-3.98,22.07c-0.8,3.83-1.68,7.89-2.66,12.19c0,0.01,0,0.01,0,0.02
		c-0.08,0.54-0.21,1.1-0.38,1.66c0,0.01,0,0.01,0,0.01c-1.27,5.51-2.68,11.41-4.26,17.72c0,0.01,0,0.01,0,0.01
		c-0.03,0.45-0.1,0.9-0.23,1.35c-0.32,1.14-0.64,2.3-0.98,3.46c-0.58,2.28-1.18,4.61-1.8,7c-0.12,0.47-0.24,0.939-0.36,1.4
		c-0.08,0.949-0.32,1.869-0.71,2.72c-0.1,0.39-0.2,0.78-0.31,1.16c-0.02,0.05-0.03,0.1-0.04,0.159
		c-0.33,1.311-0.65,2.561-0.97,3.761c0,0.01,0,0.02,0,0.02c-0.17,1.44-0.49,2.88-0.88,4.28c-0.28,1.03-0.62,2.01-1.01,2.979
		c-0.57,2.21-1.08,4.171-1.53,5.91c0.06,0.94-0.02,1.9-0.34,2.74c-0.19,0.5-0.81,2.271-0.89,2.38c0-0.04,0.04-0.2,0.14-0.56
		c-0.1,0.319-0.21,0.64-0.34,0.95c-1.9,7.34-2.07,8-2.09,8.06c21.04-22.771,51.63-55.74,95.88-103.21
		c48.45-51.98,39.39-37.46,8.99-0.05c0.899-0.94,1.84-1.86,2.8-2.74c-0.15-0.12-0.26-0.2-0.28-0.2c1.771-1.86,2.99-3.97,5.04-5.58
		c-0.06-0.05-0.109-0.08-0.12-0.08c0.23-0.02,0.391-0.14,0.53-0.28c-0.12-0.11-0.25-0.22-0.28-0.22c0.2-0.04,0.29-0.22,0.5-0.25
		c0.011-0.01,0.04,0.02,0.07,0.03c0.771-1.28,1.67-2.48,2.43-3.77c0,0.04,0.11,0.14,0.29,0.29c0.32-0.26,0.65-0.51,0.96-0.8
		c0.07,0,0.601,0.42,1.091,0.83c0.14,0.05,0.27,0.1,0.409,0.17c0.54,0.25,1.07,0.76,1.561,1.21c0.479-0.76,0.939-1.51,1.399-2.25
		l1.45,1.17c0.431,0.31,0.891,0.64,1.3,0.94c0.29-0.65,0.58-1.31,0.91-1.95c0.561,0.45,1.12,0.91,1.681,1.36
		c0.6,0.4,1.229,0.82,1.659,1.17c-0.039-0.88-0.069-1.77-0.05-2.65l2.71,2.19c0.551,0.36,1.021,0.69,1.181,0.95l0.029,0.06
		c0.73,1.2,0.811,2.95,0.591,4.77C233.91,60.4,233.97,62.41,233.84,64.51z"/>
	<path fill="none" stroke="#000000" stroke-miterlimit="10" d="M205.87,64.03c-1.37,1.68-2.78,3.41-4.24,5.19
		c-1.29,1.58-2.61,3.19-3.97,4.84c-0.18,0.22-0.36,0.44-0.54,0.66c-1.66,2.01-3.36,4.07-5.11,6.17c-1.34,1.62-2.71,3.27-4.109,4.94
		c-3.79,4.55-7.75,9.26-11.82,14.09c-2.2,2.61-4.44,5.26-6.71,7.93c-0.26,0.31-0.53,0.62-0.79,0.93c-0.09,0.1-0.18,0.21-0.26,0.31
		c-0.29,0.33-0.57,0.67-0.86,1c-0.04,0.05-0.07,0.09-0.11,0.14c-1.26,1.47-2.51,2.95-3.779,4.43c-0.45,0.52-0.891,1.05-1.34,1.57
		c-5.301,6.2-10.711,12.5-16.171,18.79c-0.609,0.7-1.229,1.41-1.829,2.12c-0.79,0.9-1.57,1.811-2.36,2.71
		c-0.15,0.181-0.311,0.36-0.47,0.54c-1.19,1.37-2.381,2.74-3.57,4.11c-0.61,0.69-1.21,1.38-1.811,2.06
		c-0.319,0.381-0.649,0.75-0.979,1.12c-0.08,0.08-0.15,0.17-0.23,0.271c-0.329,0.38-0.659,0.75-0.989,1.12
		c-2.87,3.279-5.73,6.55-8.58,9.779c-2.42,2.73-4.83,5.45-7.21,8.131c-0.6,0.67-1.19,1.34-1.78,2c-0.02,0.029-0.04,0.05-0.06,0.069
		c-0.72,0.811-1.44,1.61-2.16,2.41c-2.29,2.57-4.57,5.11-6.83,7.61c-0.13,0.16-0.27,0.31-0.41,0.46c-0.89,0.989-1.77,1.96-2.64,2.93
		c-6.5,7.18-12.76,14-18.62,20.271c-0.47,0.51-0.94,1.01-1.41,1.5c-0.08,0.1-0.17,0.199-0.26,0.279c-0.15,0.16-0.3,0.32-0.44,0.48
		c-0.37,0.39-0.74,0.779-1.1,1.16c-0.32,0.34-0.64,0.68-0.96,1.02c-0.91,0.97-1.82,1.92-2.71,2.86c-0.01,0-0.01,0-0.02,0.01
		c-0.28,0.3-0.57,0.6-0.85,0.9c-3.24,3.39-6.31,6.56-9.19,9.479c-0.01,0.01-0.01,0.01-0.02,0.021c-1.26,1.26-2.48,2.479-3.65,3.64
		c-2.08,2.07-4.04,3.97-5.87,5.68c-0.83,0.8-1.64,1.55-2.42,2.271c-2,1.819-3.8,3.399-5.38,4.68c-0.01,0-0.01,0-0.02,0.01
		c-0.03,0.011-0.07,0.04-0.12,0.09c-0.01,0.011-0.03,0.03-0.04,0.04c-0.91,0.74-1.75,1.381-2.5,1.91
		c-1.54,1.101-2.76,1.771-3.61,1.98c-0.29,0.069-0.57,0.13-0.85,0.189c-0.01,0-0.01,0-0.02,0c-19.31,3.74-3.47-33.51-1.72-185.459
		c6.4-1.82,17.79-8.38,37.08-23.1c8.71-6.64,14.85-8.68,18.93-7.15c0.57,0.21,1.11,0.5,1.6,0.85c0.2,0.14,0.4,0.3,0.59,0.47
		c0.3,0.26,0.59,0.56,0.85,0.88c1.95,2.32,3.04,6.07,3.44,10.94c0,0,0,0.01,0,0.02c0.25,2.97,0.24,6.35-0.01,10.08
		c-0.15,2.41-0.39,4.97-0.72,7.66c-0.01,0.02-0.01,0.05-0.01,0.07c-0.07,0.57-0.15,1.15-0.23,1.73c-0.55,4.13-1.29,8.53-2.19,13.15
		c-1.13,5.84-2.52,12.02-4.09,18.4c-0.01,0.04-0.02,0.07-0.03,0.1c-0.41,1.7-0.85,3.42-1.29,5.15c-0.43,1.67-0.87,3.36-1.33,5.06
		c-0.85,3.19-1.74,6.42-2.65,9.66c-0.01,0.01,0,0.02,0,0.02c-0.99,3.48-2.01,6.99-3.05,10.5c-1.53,5.12-3.1,10.25-4.7,15.33
		c-0.28,0.89-0.56,1.78-0.85,2.66c-0.45,1.42-0.9,2.84-1.36,4.25c-0.62,1.91-1.23,3.81-1.85,5.7c-0.84,2.56-1.68,5.09-2.51,7.58
		c-0.69,2.05-1.37,4.079-2.06,6.079c-0.36,1.07-0.72,2.131-1.08,3.181c-1.58,4.6-3.12,9.029-4.6,13.22c0,0.01-0.01,0.03-0.01,0.04
		c-0.48,1.36-0.96,2.69-1.42,4c0,0.01-0.01,0.02-0.01,0.04c-0.17,0.45-0.33,0.9-0.48,1.34c-0.33,0.92-0.66,1.82-0.97,2.71
		c-0.12,0.311-0.23,0.61-0.34,0.92c-0.78,2.181-1.54,4.28-2.27,6.271c0,0.01,0,0.02-0.01,0.02c-1.08,2.97-2.09,5.7-3.01,8.181
		c-0.01,0.01-0.01,0.02-0.01,0.029c-0.54,1.45-1.04,2.811-1.52,4.07c-0.67,1.78-1.26,3.37-1.78,4.74c-0.01,0-0.01,0-0.01,0.01
		c-0.23,0.61-0.44,1.18-0.64,1.7c-0.06,0.14-0.11,0.29-0.16,0.42c-0.07,0.17-0.13,0.33-0.19,0.49c-0.81,2.119-1.27,3.3-1.3,3.39
		c0.19-0.22,2.63-3,11.43-12.65c1.02-1.12,2.13-2.33,3.32-3.649c0.88-0.95,1.8-1.96,2.78-3.021c1.6-1.75,3.35-3.66,5.24-5.729
		c0.06-0.07,0.13-0.13,0.18-0.2c0.53-0.561,1.06-1.13,1.59-1.72c1.07-1.17,2.19-2.38,3.35-3.65c0.01,0,0.01-0.01,0.02-0.01
		c1.07-1.16,2.18-2.37,3.34-3.63c1.79-1.95,3.69-4.011,5.69-6.181c0.36-0.39,0.73-0.79,1.11-1.189c0.01-0.021,0.02-0.04,0.04-0.061
		c0.17-0.18,0.34-0.359,0.51-0.54c1.45-1.58,2.96-3.22,4.53-4.909c0.58-0.631,1.15-1.25,1.75-1.891c0,0,0,0,0-0.01
		c21.04-22.771,51.63-55.74,95.88-103.21C245.33,12.1,236.27,26.62,205.87,64.03z"/>
	<path fill="none" stroke="#000000" stroke-miterlimit="10" d="M44.09,240.93c-0.8,0.08-1.6,0.16-2.42,0.24"/>
	<path fill="none" stroke="#000000" stroke-miterlimit="10" d="M55.39,239.71c-1.34,0.16-2.72,0.31-4.13,0.47"/>
	<path fill="none" stroke="#000000" stroke-miterlimit="10" d="M55.8,239.66c-0.13,0.02-0.26,0.04-0.39,0.05"/>
	<path fill="none" stroke="#000000" stroke-miterlimit="10" d="M63.66,238.68c-1.36,0.19-2.76,0.37-4.2,0.54"/>
	<path fill="none" stroke="#000000" stroke-miterlimit="10" d="M77.88,236.38c-3.71,0.73-7.75,1.4-12.2,2.021"/>
	<path fill="none" stroke="#000000" stroke-miterlimit="10" d="M95.28,231.46c-3.56,1.42-7.43,2.63-11.79,3.68"/>
	<path fill="none" stroke="#000000" stroke-miterlimit="10" d="M104.84,226.68c-1.25,0.78-2.54,1.5-3.86,2.19"/>
	<path fill="none" stroke="#000000" stroke-miterlimit="10" d="M107.99,224.61c-0.86,0.609-1.73,1.18-2.61,1.729"/>
	<path fill="none" stroke="#000000" stroke-miterlimit="10" d="M116.74,217.43c-0.49,0.45-0.97,0.891-1.45,1.33"/>
	<path fill="none" stroke="#000000" stroke-miterlimit="10" d="M124.16,209.87c-0.87,0.95-1.73,1.86-2.58,2.74"/>
	<path fill="none" stroke="#000000" stroke-miterlimit="10" d="M137.58,194.42c-2.22,2.63-4.311,5.1-6.3,7.41"/>
	<path fill="none" stroke="#000000" stroke-miterlimit="10" d="M155.89,172.7c-1.08,1.27-2.14,2.51-3.17,3.72"/>
	<path fill="none" stroke="#000000" stroke-miterlimit="10" d="M187.91,136.49c-0.28,0.3-0.54,0.6-0.8,0.899"/>
	<path fill="none" stroke="#000000" stroke-miterlimit="10" d="M190.15,133.94c-0.5,0.569-1,1.14-1.511,1.72"/>
	<path fill="none" stroke="#000000" stroke-miterlimit="10" d="M194.41,129.05c-0.88,1.021-1.79,2.07-2.72,3.12"/>
	<path fill="none" stroke="#000000" stroke-miterlimit="10" d="M199.91,122.61c-0.68,0.81-1.37,1.62-2.08,2.45"/>
	<path fill="none" stroke="#000000" stroke-miterlimit="10" d="M204.23,117.41c-0.771,0.95-1.57,1.91-2.391,2.89"/>
	<path fill="none" stroke="#000000" stroke-miterlimit="10" d="M224.65,89.49c-3.54,5.87-8.341,12.7-14.78,20.9"/>
	<path fill="none" stroke="#000000" stroke-miterlimit="10" d="M230.82,77.38c-1.19,2.99-2.78,6.27-4.891,9.94"/>
	<path fill="none" stroke="#000000" stroke-miterlimit="10" d="M233.84,64.53c-0.1,1.63-0.31,3.31-0.66,5.07"/>
	<path fill="none" stroke="#000000" stroke-miterlimit="10" d="M233.73,58.4c-0.131-1.58-0.341-3.16-0.591-4.77
		c-0.949-6.39-2.449-13.26-2.199-22.96"/>
	<path fill="none" stroke="#000000" stroke-miterlimit="10" d="M101,167.3c0,0,0,0,0-0.01"/>
	<path fill="none" stroke="#000000" stroke-miterlimit="10" d="M104.52,153.72c-0.56,2.16-1.03,3.98-1.43,5.511"/>
	<path fill="none" stroke="#000000" stroke-miterlimit="10" d="M107.94,140.55c-0.7,2.681-1.32,5.09-1.89,7.26"/>
	<path fill="none" stroke="#000000" stroke-miterlimit="10" d="M109.97,132.73c-0.25,0.939-0.48,1.84-0.71,2.72"/>
	<path fill="none" stroke="#000000" stroke-miterlimit="10" d="M113.34,119.52c-0.39,1.57-0.8,3.18-1.21,4.81"/>
	<path fill="none" stroke="#000000" stroke-miterlimit="10" d="M117.98,100.12c-0.12,0.55-0.25,1.1-0.38,1.66"/>
	<path fill="none" stroke="#000000" stroke-miterlimit="10" d="M124.62,65.84c-0.93,6.36-2.24,13.67-3.98,22.07"/>
	<path fill="none" stroke="#000000" stroke-miterlimit="10" d="M126.05,53.81c-0.11,1.34-0.25,2.74-0.41,4.2"/>
	<path fill="none" stroke="#000000" stroke-miterlimit="10" d="M126.25,39.88c-0.12-1.42-0.29-2.71-0.51-3.89"/>
	<path fill="none" stroke="#000000" stroke-miterlimit="10" d="M115.24,24.48c-0.5-0.06-1.02-0.1-1.54-0.13"/>
	<path fill="none" stroke="#000000" stroke-miterlimit="10" d="M108.82,24.5c-1.08,0.08-2.19,0.19-3.31,0.3"/>
	<path fill="none" stroke="#000000" stroke-miterlimit="10" d="M105.02,24.85c-0.87,0.07-1.76,0.15-2.64,0.21
		c-0.39,0.03-0.77,0.06-1.15,0.08"/>
	<path fill="none" stroke="#000000" stroke-miterlimit="10" d="M145,89.5"/>
	<path d="M126.17,42.8c-0.06,2.81-0.25,5.62-0.24,8.41c0.01,0.92,0.08,1.76,0.12,2.6c0.061,1.16,0.07,2.31-0.23,3.58
		c-0.05,0.22-0.11,0.43-0.18,0.62c-0.18,0.49-0.43,0.91-0.73,1.27c0.08,0.33,0.14,0.67,0.15,1.03c0.04,0.98-0.23,1.9-0.57,2.78
		c0.07,0.37,0.13,0.75,0.13,1.16c0.01,0.53,0.01,1.06,0,1.59c-0.14,7.34-2,14.75-3.98,22.07c-0.9,3.3-1.82,6.58-2.62,9.83
		c0.09,0.76,0.09,1.55-0.04,2.36c0,0.01,0,0.01,0,0.02c-0.08,0.54-0.21,1.1-0.38,1.66c0,0.01,0,0.01,0,0.01
		c-0.17,0.56-0.38,1.12-0.62,1.67c-0.06,0.3-0.14,0.6-0.25,0.91c-0.66,1.96-0.63,4.08-1.37,6c-0.12,0.31-0.24,0.6-0.36,0.9v0.23
		c-0.05,1.64-0.57,3.05-1.15,4.4c-0.06,0.83-0.24,1.64-0.54,2.41c0.04,0.39,0.05,0.79,0.03,1.2c0,0.01,0,0.01,0,0.01
		c-0.03,0.45-0.1,0.9-0.23,1.35c-0.32,1.14-0.64,2.3-0.98,3.46c-0.6,2.1-1.25,4.21-1.97,6.24c-0.06,0.17-0.14,0.37-0.21,0.55
		c0.06,0.53,0.06,1.08,0.02,1.61c-0.08,0.949-0.32,1.869-0.71,2.72c-0.05,0.12-0.1,0.229-0.16,0.34c-0.04,0.28-0.09,0.55-0.15,0.82
		c-0.02,0.05-0.03,0.1-0.04,0.159c-0.2,0.73-0.49,1.421-0.85,2.061c-0.01,0.57-0.06,1.14-0.12,1.7c0,0.01,0,0.02,0,0.02
		c-0.17,1.44-0.49,2.88-0.88,4.28c-0.28,1.03-0.62,2.01-1.01,2.979c-0.19,0.5-0.39,0.99-0.61,1.49c-0.17,1.16-0.38,2.311-0.71,3.44
		c-0.06,0.229-0.15,0.43-0.24,0.649c0.01,0.11,0.02,0.221,0.03,0.33c0.06,0.94-0.02,1.9-0.34,2.74c-0.19,0.5-0.81,2.271-0.89,2.38
		c0-0.04,0.04-0.2,0.14-0.56c-0.1,0.319-0.21,0.64-0.34,0.95c-0.24,0.64-0.52,1.27-0.77,1.909c-0.22,0.57-0.45,1.141-0.63,1.73
		c0.14,2.17-0.66,4.33-2.24,5.88c-0.06,0.15-0.12,0.3-0.2,0.44c-0.96,2.119-2.5,3.81-4.53,4.909c-0.08,0.051-0.17,0.101-0.25,0.141
		c-0.08,0.14-0.17,0.27-0.26,0.399c-0.02,0.021-0.03,0.04-0.04,0.061c-0.32,0.439-0.69,0.84-1.11,1.189
		c-0.42,0.36-0.9,0.67-1.43,0.92c-0.93,1.16-1.47,1.95-2.89,3.591c-0.52,0.6-0.97,1.13-1.37,1.67c-0.27,0.35-0.53,0.71-0.77,1.09
		c-0.67,1.06-1.56,1.92-2.57,2.54c-0.01,0-0.01,0.01-0.02,0.01c-0.34,0.21-0.69,0.39-1.06,0.54c-0.56,0.97-1.28,1.72-2.09,2.3
		c-0.02,0.271-0.08,0.54-0.2,0.811c-0.09,0.22-0.22,0.439-0.39,0.659c-0.23,0.351-0.52,0.641-0.88,0.87
		c-0.09,0.08-0.2,0.141-0.32,0.19c-0.05,0.03-0.09,0.05-0.14,0.07c-0.01,0.04-0.02,0.09-0.04,0.13c-0.08,0.34-0.23,0.67-0.5,0.989
		c-1.43,1.74-3.05,3.261-4.74,4.74c-0.85,0.74-1.72,1.471-2.58,2.21c-0.02,0.261-0.08,0.53-0.2,0.811
		c-0.02,0.08-0.05,0.149-0.09,0.229c-0.69,1.471-1.93,2.5-3.23,3.42c-0.07,0.061-0.15,0.11-0.22,0.16c-1.07,0.75-1.83,1.19-2.3,2.3
		c-0.22,0.53-0.69,0.87-1.22,1.051c-0.31,0.649-0.71,1.27-1.21,1.779c-0.28,0.29-0.65,0.5-1.04,0.601
		c-0.34,0.779-0.76,1.51-1.38,2.12c-0.1,0.09-0.22,0.17-0.34,0.25c-0.05,0.21-0.85,0.59-1.51,0.819c-0.07,0.03-0.14,0.05-0.2,0.07
		c-0.24,0.07-0.45,0.12-0.57,0.12c-0.05,0-0.1,0-0.14-0.01c-0.47-0.03-0.25-0.25,0.19-0.49c0.14-0.08,0.31-0.15,0.48-0.23
		c-0.13-0.04-0.24-0.1-0.32-0.189c-0.29-0.23-0.3-0.63,0.05-0.971c0.22-0.22,0.42-0.46,0.59-0.729c0-0.01,0-0.01,0.01-0.01
		c0.74-1.16,1.06-2.69,1.59-3.9c0.07-0.15,0.21-0.29,0.4-0.41c-0.08-0.14-0.16-0.279-0.21-0.43c-0.22-0.58-0.18-1.26,0.27-1.97
		c0.43-0.69,0.84-1.391,1.25-2.101c0-0.01,0-0.02,0.01-0.029c0.44-0.801,0.87-1.61,1.3-2.421c-0.01-0.229,0-0.479,0.06-0.729
		c0.23-0.88,0.54-1.68,1-2.47c0.08-0.13,0.16-0.24,0.25-0.351c0.09-0.76,0.21-1.5,0.4-2.21c0.01,0,0.01-0.01,0.01-0.02
		c0.11-0.41,0.25-0.82,0.42-1.221c0.36-1.479,0.78-2.939,1.38-4.229c0.12-0.26,0.28-0.54,0.47-0.82c0.14-0.2,0.28-0.39,0.44-0.58
		c-0.04-0.109-0.08-0.22-0.1-0.34c-0.01-0.02-0.02-0.03-0.02-0.05c-0.22-1.01,0.24-2.06,0.99-2.66c0.11-0.1,0.22-0.18,0.34-0.25
		c0.01-0.35,0.06-0.72,0.14-1.09c0-0.021,0.01-0.03,0.01-0.04c0.08-0.37,0.18-0.74,0.32-1.12c0.35-0.97,0.72-1.93,1.1-2.88
		c0-0.01,0.01-0.03,0.01-0.04c1.14-2.91,2.31-5.8,3.14-8.83c0.28-0.99,0.68-1.83,1.17-2.54c0.06-0.649,0.16-1.26,0.29-1.85
		c0.23-1.08,0.58-2.09,1.08-3.181c0.07-0.149,0.14-0.31,0.22-0.47c0.26-0.54,0.58-1,0.93-1.41c0.02-0.1,0.04-0.199,0.05-0.29
		c0.19-0.88,0.51-1.77,0.66-2.649c0.07-0.42,0.13-0.851,0.2-1.26c0.4-2.57,0.78-4.98,2.28-7.271c0.07-0.11,0.15-0.21,0.23-0.31
		c0.07-0.091,0.13-0.17,0.2-0.25c0.21-1.19,0.61-2.33,1.24-3.271c0.07-0.47,0.14-0.939,0.24-1.399c0.06-0.261,0.11-0.53,0.17-0.78
		c0.35-1.47,0.78-2.87,1.36-4.25c0.21-0.5,0.44-0.99,0.69-1.49c0-0.01,0.01-0.02,0.02-0.03c0.04-0.38,0.08-0.76,0.14-1.14
		c0.72-5.14,2.84-10.33,4.7-15.33c1.02-2.76,1.96-5.47,2.54-8.08c0.16-0.74,0.33-1.55,0.51-2.42c0,0-0.01-0.01,0-0.02
		c0.61-3,1.35-6.58,2.65-9.66c0.32-0.78,0.69-1.52,1.09-2.22c-0.01-0.27-0.02-0.54,0-0.82c0.04-0.67,0.12-1.34,0.24-2.02
		c0.29-1.71,0.79-3.43,1.29-5.15c0.01-0.03,0.02-0.06,0.03-0.1c0.54-1.83,1.08-3.64,1.41-5.44c0.7-3.86,2.8-8.19,2.67-12.09
		c-0.01-0.24,0-0.47,0.02-0.7c-0.01-0.06-0.01-0.11-0.01-0.17c-0.36-3.97,1.17-9.02,1.73-11.84c0.1-0.49,0.26-0.93,0.46-1.31
		c0.1-0.2,0.21-0.38,0.34-0.55c-0.08-0.38-0.13-0.77-0.11-1.18c0-0.02,0-0.05,0.01-0.07c0.16-2.57,0.48-5.11,0.72-7.66
		c0.18-1.74,0.32-3.48,0.37-5.26c0.04-1.72-0.09-3.29-0.36-4.82c0-0.01,0-0.02,0-0.02c-0.4-2.24-1.06-4.38-1.84-6.68
		c-0.16-0.33-0.29-0.65-0.37-0.96c-0.15-0.53-0.19-1.06-0.16-1.59c-0.61-0.39-0.97-1.03-1.07-1.71c-0.03-0.23-0.03-0.45-0.01-0.67
		c-0.16,0-0.32-0.02-0.47-0.06c-0.13-0.04-0.25-0.09-0.37-0.15c-0.11-0.05-0.21-0.1-0.32-0.15c-0.19-0.09-0.27-0.2-0.27-0.32
		c0-0.24,0.33-0.51,0.57-0.65c0.19-0.1,0.42-0.2,0.67-0.28c0.01,0.01,0.01,0.01,0.01,0c0.38-0.1,0.8-0.16,1.15-0.08
		c0.75-0.55,1.77-0.64,2.64-0.21c0.04,0.01,0.08,0.03,0.12,0.05v0.01c0.03,0.01,0.06,0.01,0.08,0.02c0.09-0.05,0.19-0.09,0.29-0.13
		c0.2-0.09,0.41-0.17,0.63-0.23c0.04-0.02,0.08-0.03,0.12-0.05c0.78-0.29,1.71-0.25,2.56-0.02c0.09,0.02,0.18,0.05,0.27,0.08
		c0.66-0.12,1.39-0.12,2.18,0.04c0.21,0.07,0.42,0.12,0.63,0.17c0.22-0.04,0.42-0.07,0.63-0.09c0.36-0.18,0.75-0.29,1.17-0.35
		c0.48-0.05,1-0.02,1.54,0.13c0.19,0.05,0.39,0.12,0.59,0.2c0.57,0.23,1.1,0.47,1.62,0.7c1.69,0.06,2.91,0.8,3.68,1.87
		c0.37,0.23,0.71,0.47,0.98,0.75c0.41,0.27,0.78,0.62,1.09,1.06c0.05,0.07,0.09,0.14,0.13,0.21c0,0,0.02,0.01,0.02,0.02
		c0.07,0.11,0.14,0.23,0.2,0.35c0.19,0.38,0.35,0.8,0.46,1.28c0.07,0.31,0.12,0.59,0.16,0.87c0.1,0.25,0.18,0.5,0.25,0.75
		c0.57,0.98,1.01,2.16,1.32,3.45c0.29,1.23,0.47,2.55,0.51,3.89C126.29,40.85,126.26,41.84,126.17,42.8z"/>
	<path fill="none" stroke="#000000" stroke-miterlimit="10" d="M57.833,213.5c0.21-0.249,0.332-0.486,0.289-0.827
		c-0.04-0.012-0.081-0.014-0.122-0.006"/>
	<path fill="none" stroke="#000000" stroke-miterlimit="10" d="M58.708,212.542c-0.385,0.135-0.421,0.25-0.593,0.584
		c-0.225,0.438-0.428,0.509-0.824,0.707"/>
	<path d="M233.84,64.51c0,0.01,0,0.01,0,0.02c0,0.99-0.07,1.98-0.229,2.94c-0.12,0.72-0.261,1.43-0.431,2.13
		c-0.02,0.1-0.04,0.21-0.069,0.32c-0.57,2.4-1.37,4.67-2.4,6.94c0.06,0.16,0.09,0.33,0.11,0.52c0.27,2.5-2.7,6.99-4.891,9.94
		c-0.59,0.79-1.12,1.46-1.52,1.96c0.1,0.08,0.18,0.15,0.24,0.21c0.09,0.09,0.14,0.15,0.13,0.17c-2.78,4.2-5.59,8.38-8.54,12.46
		c-1.58,2.2-3.73,6.49-6.37,8.27c-0.37,0.24-0.75,0.44-1.13,0.58c-1.28,1.74-2.561,3.5-3.8,5.3v0.01c-0.221,0.4-0.46,0.77-0.71,1.13
		c-0.73,1.04-1.561,1.96-2.391,2.89c-0.66,0.75-1.33,1.5-1.93,2.31c-0.15,0.19-0.29,0.39-0.43,0.6c-0.471,0.69-1.051,1.28-1.65,1.85
		c-0.021,0.02-0.03,0.04-0.05,0.05c-1.04,0.97-2.141,1.871-2.87,3.081c-0.17,0.279-0.33,0.569-0.5,0.859
		c-0.45,0.76-0.91,1.521-1.53,2.13c-0.29,0.29-0.75,0.63-1.189,0.99c-0.48,0.39-0.94,0.8-1.16,1.19
		c-0.11,0.199-0.24,0.39-0.37,0.569c0,0.011,0,0.011-0.01,0.011c-0.45,0.64-1,1.17-1.511,1.72c-0.02,0.02-0.04,0.03-0.05,0.05
		c-0.229,0.24-0.45,0.49-0.66,0.75c-0.01,0.01-0.01,0.021-0.02,0.03c-0.26,0.34-0.49,0.689-0.67,1.1c0-0.05-0.05-0.109-0.13-0.2
		c-0.08-0.069-0.181-0.159-0.311-0.26c-0.069,0.271-0.17,0.54-0.3,0.811c-0.12,0.239-0.27,0.439-0.44,0.619
		c-0.029,0.04-0.069,0.091-0.109,0.12c-0.58,0.601-1.33,0.96-1.851,1.721c-0.699,1.02-1.88,1.55-2.5,2.59
		c-0.529,0.899-0.979,1.92-1.949,2.42c-0.08,0.04-0.21,0.01-0.351-0.08c-0.52,0.59-1.03,1.17-1.569,1.74
		c-7.141,7.649-13.69,15.91-20.87,23.51c-0.24,0.35-0.5,0.67-0.761,0.99c0.16,0.149,0.25,0.27,0.221,0.33
		c-0.13,0.27-0.271,0.54-0.431,0.8c-0.71,1.229-1.72,2.359-2.72,3.319c-0.15,0.141-0.3,0.271-0.45,0.4c0,0.01-0.01,0.01-0.01,0.01
		c-0.47,0.4-0.97,0.771-1.44,1.181c-0.529,0.46-0.71,1.1-1.199,1.58c-0.021,0.02-0.101-0.021-0.221-0.101
		c-1.42,2.01-2.859,3.99-4.649,5.7c-0.391,0.38-0.76,0.76-1.15,1.14c-0.359,1.19-1.12,2.23-2.28,2.83
		c-0.279,0.471-0.63,0.9-1.05,1.26c-0.22,0.74-0.609,1.44-1.18,2.021c-0.47,0.46-0.98,0.92-1.53,1.31
		c-0.09,0.351-0.229,0.71-0.43,1.07c-0.03,0.061-0.061,0.13-0.1,0.19c-0.841,1.449-1.99,2.55-2.921,3.88
		c-0.909,1.319-2.18,2.21-3.279,3.34c-0.181,0.18-0.351,0.37-0.521,0.57c-0.319,0.39-0.649,0.77-0.97,1.149
		c-0.28,0.32-0.55,0.641-0.83,0.96c-1.45,1.66-2.94,3.28-4.51,4.86c-0.06,0.06-0.12,0.1-0.18,0.149c-0.03,0.11-0.06,0.23-0.1,0.341
		c0,0,0,0-0.01,0.01c-0.33,0.979-1.04,1.88-2.22,2.53c-0.11,0.06-0.23,0.13-0.36,0.21c-0.5,0.3-1.13,0.71-1.73,1.14
		c-0.1,0.17-0.19,0.35-0.32,0.52c-0.42,0.551-0.85,1.08-1.31,1.54c0.32-0.05-1.12,1.221-1.35,1.471c-0.04,0.05-0.08,0.1-0.13,0.149
		c-0.42,0.521-0.9,0.96-1.45,1.33c-0.01,0.021-0.01,0.021-0.02,0.021c-0.08,0.06-0.15,0.109-0.23,0.16
		c-1.49,1.06-2.4,2.05-3.76,3.21c-0.01,0.01-0.01,0.01-0.02,0.02c-0.17,0.14-0.34,0.28-0.52,0.41c-0.09,0.07-0.18,0.14-0.27,0.2
		c-0.68,0.5-1.41,0.92-2.15,1.319c-0.09,0.181-0.2,0.351-0.33,0.511c-0.58,0.83-1.45,1.47-2.61,1.729
		c-0.08,0.03-0.16,0.04-0.24,0.061c-0.1,0.1-0.19,0.189-0.3,0.279c-0.1,0.09-0.2,0.181-0.32,0.261c-1.02,0.76-2.25,1.489-3.54,1.93
		c-0.02,0-0.03,0-0.04,0.01c-0.6,0.19-1.2,0.32-1.81,0.36c-0.54,0.6-1.28,1.1-2.22,1.41c-0.59,0.189-1.12,0.479-1.63,0.81
		c-1.03,0.63-2.01,1.39-3.2,1.73c-2.27,0.64-4.56,1.199-6.88,1.64c-0.57,0.11-1.14,0.22-1.71,0.31c-1.59,0.28-3.16,0.5-4.74,0.681
		c-0.26,0.21-0.55,0.399-0.87,0.56c-0.25,0.12-0.52,0.23-0.8,0.311c-2.42,0.689-5.75,1.54-8.79,1.46
		c-0.87,0.119-1.74,0.21-2.61,0.25c-0.54,0.029-1.08,0.04-1.62,0.02c-0.13,0.09-0.26,0.18-0.4,0.26c-0.04,0.03-0.09,0.061-0.14,0.09
		c-1.45,0.881-2.87,0.921-4.06,0.45c-0.18-0.069-0.36-0.149-0.53-0.239c-0.08,0.05-0.15,0.079-0.22,0.09
		c-0.95,0.22-1.91,0.39-2.87,0.56c-0.01,0.01-0.03,0.03-0.04,0.03c-0.14,0.13-0.23,0.21-0.25,0.21c-0.05-0.05-0.1-0.11-0.14-0.16
		c-0.01,0-0.01,0-0.02,0c-0.86,0.15-1.73,0.31-2.58,0.5c-0.68,0.16-1.17,0.15-1.55-0.03c-0.11-0.04-0.21-0.109-0.3-0.18
		c-0.98,0.29-2.04,0.42-3.06,0.42c-0.4,0.15-0.8,0.23-1.23,0.15c0.04,0,0.53-0.511,0.53-0.511c0.42-0.399,0.85-0.81,1.28-1.21
		c0.03-0.029,0.06-0.06,0.09-0.09c0.4-0.37,0.81-0.74,1.21-1.109c0.01,0,0.48-0.49,0.55-0.49c0.03,0.01,0.07,0.01,0.1,0.01
		c0.12-0.12,0.24-0.24,0.36-0.3c0.14-0.08,0.28-0.12,0.44-0.15c-0.03,0.011-0.07,0.04-0.12,0.09c-0.01,0.011-0.03,0.03-0.04,0.04
		c-0.05,0.051-0.1,0.101-0.15,0.15c0.17,0.01,0.33,0,0.5,0.01c0.24-0.2,0.43-0.37,0.48-0.41c0.14-0.13,1.85-1.5,1.85-1.68
		c0.01,0.05,0.03,0.08,0.04,0.13c0.49-0.439,1.05-0.93,1.11-0.99c0.07-0.06,0.88-0.779,1.4-1.26c0.08-0.26,0.19-0.52,0.33-0.77
		c0.38-0.721,0.98-1.37,1.85-1.891c0.19-0.12,0.38-0.239,0.57-0.38c0.86-0.569,1.71-1.26,2.46-1.93c0.33-0.3,0.69-0.54,1.04-0.74
		c0.7-1.06,1.53-2.07,2.37-3.01c1.02-1.14,2.06-2.16,2.88-3c0.24-0.25,0.5-0.46,0.77-0.64c0.01-0.011,0.01-0.011,0.02-0.021
		c0.31-0.2,0.64-0.37,0.98-0.49c0.63-0.88,1.47-1.649,2.41-2.319c0.23-0.57,0.6-1.08,1.11-1.48c1.59-1.25,2.65-2.97,4.2-4.34
		c0.13-0.3,0.3-0.59,0.49-0.85c0.24-0.341,0.52-0.641,0.85-0.9c0.01-0.01,0.01-0.01,0.02-0.01c0.35-0.28,0.75-0.511,1.2-0.681
		c0.5-0.72,0.94-1.5,1.51-2.18c0.05-0.07,0.11-0.14,0.17-0.21c0.25-0.29,0.51-0.56,0.79-0.81c0.41-0.381,0.84-0.71,1.29-1.021
		c-0.07-0.06-0.14-0.11-0.19-0.14c-0.07-0.05-0.12-0.07-0.14-0.07c0.23-0.11,0.41-0.25,0.58-0.41c0.09-0.08,0.18-0.18,0.26-0.279
		c0.38-0.45,0.67-0.99,1.19-1.351c0.07-0.05,0.14-0.1,0.22-0.149c0.11-0.08,0.22-0.16,0.34-0.23c0.91-1,1.9-1.9,2.93-2.76
		c0.94-1.33,1.77-2.681,3.25-3.5c1.65-1.84,3.5-3.471,5.07-5.41c1.13-1.41,2.31-2.68,3.55-3.87c0.16-0.15,0.32-0.31,0.48-0.46
		c-0.08-0.07-0.13-0.12-0.13-0.12c0.74-1.34,2.08-2.39,2.96-3.689c0.05-0.08,0.11-0.16,0.17-0.23c0.79-1.09,1.74-1.95,2.64-2.93
		c0.14-0.15,0.28-0.3,0.41-0.46c2.17-2.54,4.41-5.271,6.83-7.61c0.21-0.21,0.43-0.42,0.65-0.62c0.02,0,0.07,0.04,0.15,0.101
		c0.42-0.66,0.88-1.29,1.36-1.891c0.02-0.02,0.04-0.04,0.06-0.069c0.56-0.69,1.16-1.351,1.78-2c1.64-1.73,3.4-3.351,4.95-5.25
		c0.77-0.94,1.51-1.91,2.26-2.881c1.54-2.04,3.069-4.109,4.72-6.029c0.72-0.83,2.32-2.771,3.86-3.75
		c0.31-0.19,0.609-0.351,0.91-0.45c-0.16-0.14-0.261-0.23-0.261-0.24c0.12-0.149,0.23-0.3,0.34-0.43
		c0.08-0.101,0.15-0.19,0.23-0.271c0.25-0.27,0.51-0.489,0.85-0.62c0.03-0.18,0.07-0.34,0.13-0.5c0.311-0.85,1.04-1.489,1.811-2.06
		c0.39-0.3,0.79-0.58,1.16-0.87c0.399-0.32,0.779-0.67,1.149-1.03c-0.14-0.109-0.239-0.18-0.25-0.18c0.551-0.4,0.87-0.979,1.29-1.5
		c0.04-0.189,0.12-0.37,0.221-0.53c0.119-0.199,0.27-0.38,0.449-0.55l0.021,0.01c0.04,0,0.189,0.11,0.38,0.271
		c0.03-0.04,0.06-0.08,0.09-0.11c0.55-0.63,1.17-1.79,1.891-2.87c0.55-0.83,1.149-1.62,1.829-2.12c0.25-0.18,0.521-0.319,0.79-0.409
		c0.631-0.74,1.32-1.45,2.021-2.16c-0.18-0.15-0.3-0.24-0.311-0.24c0.721-0.6,1.57-1.1,2.141-1.86
		c0.12-0.159,0.229-0.319,0.359-0.47c0.28-0.85,0.5-1.229,1.181-1.58c0.02-0.78,1.38-1.81,1.99-2.25
		c0.069-0.08,0.13-0.15,0.199-0.21c0.09-0.08,0.17-0.15,0.261-0.23c0.89-1.6,1.97-2.84,3.31-4.04c1.36-1.91,2.75-3.86,4.6-5.04
		c-0.149-0.13-0.27-0.23-0.369-0.3c-0.11-0.09-0.19-0.14-0.211-0.14c0.461-0.46,0.99-0.94,1.551-1.43c0.79-0.7,1.649-1.42,2.46-2.16
		c0-0.01-0.011-0.02-0.011-0.03c0.211-0.9,0.771-1.59,1.5-2.08c-0.06-0.06-0.13-0.12-0.17-0.16c-0.05-0.03-0.08-0.05-0.08-0.05
		c0.061-0.03,0.131-0.05,0.19-0.09c0.25-0.1,0.49-0.23,0.75-0.33c-0.01-0.01-0.03-0.03-0.03-0.04c0-0.27,0.051-0.47,0.141-0.63
		c0.08-0.1,0.17-0.21,0.26-0.31c0.18-0.14,0.42-0.24,0.7-0.33c0.08-0.16,0.16-0.32,0.239-0.48l-0.149-0.12
		c-0.021-0.02-0.04-0.03-0.061-0.05c2.11-2.78,4.431-5.34,6.771-7.88c2.5-2.73,5.03-5.43,7.35-8.37c0,0,0.021,0.01,0.021,0.02
		c1.1-1.66,2.25-3.1,3.58-4.64c0.31-0.35,0.6-0.72,0.87-1.1c1.04-1.38,1.96-2.87,3.189-4.03c0.311-0.29,0.62-0.6,0.92-0.91
		c1.09-1.13,2.141-2.37,3.141-3.53c0.76-0.88,1.54-1.64,1.97-2.64c0.149-0.32,0.25-0.66,0.31-1.05c0,0.12,0.09,0.24,0.23,0.39
		l0.01,0.01c1.43-1.4,2.67-3.32,4.29-4.57c-0.06-0.06-0.12-0.11-0.17-0.15l-0.16-0.13l-0.16-0.13c1.37-1.75,2.84-3.45,4.4-5.06
		c0.899-0.94,1.84-1.86,2.8-2.74c-0.15-0.12-0.26-0.2-0.28-0.2c1.771-1.86,2.99-3.97,5.04-5.58c-0.06-0.05-0.109-0.08-0.12-0.08
		c0.23-0.02,0.391-0.14,0.53-0.28c-0.12-0.11-0.25-0.22-0.28-0.22c0.2-0.04,0.29-0.22,0.5-0.25c0.011-0.01,0.04,0.02,0.07,0.03
		c0.771-1.28,1.67-2.48,2.43-3.77c0,0.04,0.11,0.14,0.29,0.29c0.32-0.26,0.65-0.51,0.96-0.8c0.07,0,0.601,0.42,1.091,0.83
		c0.14,0.05,0.27,0.1,0.409,0.17c0.54,0.25,1.07,0.76,1.561,1.21c0.479-0.76,0.939-1.51,1.399-2.25l1.45,1.17
		c0.431,0.31,0.891,0.64,1.3,0.94c0.29-0.65,0.58-1.31,0.91-1.95c0.561,0.45,1.12,0.91,1.681,1.36c0.6,0.4,1.229,0.82,1.659,1.17
		c-0.039-0.88-0.069-1.77-0.05-2.65c0,0.12,0.09,0.27,0.23,0.43c-0.061-0.15-0.141-0.3-0.23-0.43l2.71,2.19
		c0.551,0.36,1.021,0.69,1.181,0.95l0.029,0.06c0.73,1.2,0.811,2.95,0.591,4.77c-0.051,0.46-0.12,0.93-0.211,1.4
		C233.68,61.38,233.84,62.95,233.84,64.51z"/>
</g>
<g id="Layer_1">
	<path fill="#D3961C" d="M103.37,151.657c-1.062,2.634-1.926,5.344-3,7.979c-0.196,0.479,4.054,2.733,3.886,3.146
		c1.074-2.636,1.938-5.346,3-7.979C107.452,154.317,103.201,152.076,103.37,151.657z"/>
	<path fill="#D3961C" d="M108.683,140.916c-0.151-0.122-1.992-1.392-1.958-1.554c-0.431,2.098-0.505,4.883-2.021,6.563
		c0.034-0.038,3.801,3.24,3.886,3.146c1.516-1.68,1.59-4.465,2.021-6.563C110.655,142.289,108.852,141.053,108.683,140.916z"/>
	<path fill="#D3961C" d="M137.932,75.84c1.271,0,2.568,3.146,3.887,3.146C140.547,78.987,139.25,75.84,137.932,75.84z"/>
	<path fill="#D3961C" d="M128.377,64.815c-0.155-0.871-0.36-1.718-0.371-2.089c-0.066-2.287,0.947-4.548,1.396-6.76
		c0.159-0.788-4.033-2.425-3.886-3.146c-0.404,1.992-1.08,3.893-1.343,5.913c-0.14,1.072,0.005,2.117,0.221,3.165
		c0.042,0.202,0.125,0.523,0.183,0.863c-0.289,0.412-0.477,0.87-0.21,1.336c-0.596,2.048-1.282,3.827-1.365,6.004
		c-0.091,2.421-0.744,3.596-2.007,5.635c-0.034,0.055,0.221,0.285,0.61,0.595c-0.767,1.317-1.396,2.708-1.991,4.119
		c-0.96,2.278-0.84,4.483-1.098,6.87c-0.101,0.93,3.979,2.28,3.886,3.146c0.228-2.11,0.163-4.043,0.813-6.104
		c0.696-2.204,1.857-4.433,3.187-6.313c0.022-0.032-0.253-0.271-0.661-0.601c0.718-1.283,1.131-2.414,1.147-4.2
		c0.019-2.159,0.761-3.95,1.354-5.97c0.009,0.002,0.024,0.01,0.027,0.007c0.277-0.21,0.315-0.782,0.252-1.459
		c0.14-0.188,0.291-0.366,0.423-0.527C128.948,65.293,128.721,65.101,128.377,64.815z"/>
	<path fill="#D3961C" d="M110.797,24.549c-0.296,0.048-1.695-1.405-1.927-1.593c-0.257-0.208-1.605-1.611-1.958-1.554
		c-0.129,0.021-0.258,0.031-0.387,0.049c-0.116-0.066-0.227-0.119-0.322-0.132c-2.656-0.364-5.266-0.186-7.917,0.063
		c0.127,0.103,0.253,0.205,0.38,0.308c-1.356-0.052-2.799-0.164-4.068,0.109c0.264-0.057,1.715,1.421,1.927,1.593
		c0.236,0.191,1.637,1.623,1.958,1.554c1.557-0.335,3.385-0.083,4.98-0.083h6.145c-0.081,0-0.198-0.063-0.329-0.149
		C109.786,24.679,110.291,24.632,110.797,24.549z"/>
	<path fill="#FFFFFF" d="M72.287,239.792c0.001-0.007-0.001-0.011,0-0.018c0.05-0.04,0.108-0.075,0.156-0.118
		c-0.016,0.015-0.074-0.016-0.151-0.067c-0.014-0.085-0.051-0.161-0.144-0.241c-0.347-0.302-0.704-0.591-1.06-0.883
		c-0.408-0.335-0.822-0.661-1.232-0.993c-0.478-0.419-0.891-0.764-1.119-0.901c-0.079-0.062-0.156-0.127-0.235-0.188
		c-0.131-0.13-0.145-0.155-0.126-0.102c-0.119-0.092-0.335-0.258-0.159-0.104c0.056,0.049,0.114,0.094,0.17,0.142
		c0.02,0.063,0.041,0.169,0.017,0.306c-0.292,0.234-0.63,0.438-1.014,0.607c-0.276-0.222-0.553-0.366-0.832-0.366
		c0.271,0,0.543,0.148,0.816,0.373c-2.139,0.93-5.467,0.956-7.467,1.372c-3.417,0.71-6.775,0.745-10.183,1.234
		c1.094-0.157,2.737,3.312,3.886,3.146c3.406-0.489,6.766-0.536,10.183-1.234c1.682-0.344,4.312-0.422,6.378-0.993
		c0.271,0.214,0.542,0.353,0.814,0.353c-0.265,0-0.531-0.142-0.798-0.357c0.822-0.229,1.545-0.541,2.09-0.976
		C72.279,239.785,72.287,239.791,72.287,239.792z"/>
	<path fill="#D2971C" d="M81.193,238.407c-0.385,0.013-1.635-1.356-1.927-1.593c-0.32-0.259-1.518-1.568-1.958-1.554
		c-1.671,0.054-3.239,0.551-4.864,0.896c-1.929,0.409-3.547-0.497-5.302-1.146c0.085,0.031,0.164,0.084,0.246,0.125
		c0.114,0.124,0.222,0.252,0.337,0.375c0.467,0.499,1.061,0.924,1.614,1.349c0.469,0.499,0.957,0.953,1.518,1.212
		c0.058,0.046,0.115,0.093,0.173,0.139c0.163,0.13,0.432,0.289,0.58,0.447c-0.128-0.137-0.247-0.28-0.375-0.417
		c-0.002-0.002-0.004-0.004-0.006-0.006c1.467,0.559,2.81,1.225,4.423,1.173C77.524,239.346,79.294,238.469,81.193,238.407z"/>
	<path fill="#D2971C" d="M113.734,226.615c-0.375,0.018-1.643-1.362-1.927-1.593c-0.313-0.253-1.527-1.574-1.958-1.554
		c-2.372,0.11-7.586,0.981-6.667,4.417c0.129,0.482,1.561,1.296,1.927,1.593c0.337,0.273,1.843,1.123,1.958,1.554
		C106.148,227.597,111.363,226.726,113.734,226.615z"/>
	<path fill="#D2971C" d="M102.849,231.053c-3.87,0.073-7.594,0.64-11.347,1.572c-2.591,0.645-6.401,0.969-8.319,2.969
		c0.071-0.073,3.763,3.274,3.886,3.146c1.951-2.033,5.707-2.251,8.319-2.969c3.707-1.018,7.511-1.499,11.347-1.572
		C105.484,234.223,104.147,231.028,102.849,231.053z"/>
	<path fill="#D2971C" d="M125.682,207.219c-0.923,0.97-2.117,1.601-3.085,2.521c-1.015,0.965-2.227,1.928-2.999,3.104
		c-0.112,0.17,3.956,3.039,3.886,3.146c0.735-1.119,1.852-1.859,2.75-2.833c0.993-1.076,2.325-1.732,3.334-2.792
		C129.502,210.435,125.8,207.095,125.682,207.219z"/>
	<path fill="#D2971C" d="M143.1,190.844c-3.25,1.839-7.159,3.363-8.626,7.073c-0.115,0.291-0.256,0.566-0.393,0.845
		c-2.361,0.972-3.94,2.659-3.6,5.781c0.173,1.588,3.039,3.111,4.19,3.977c0.014,0.01,0.025,0.014,0.039,0.023
		c0.012,0.009,0.023,0.019,0.035,0.028c-0.003-0.004-0.004-0.008-0.006-0.011c0.844,0.521,1.088-1.435,1.153-1.826
		c0.309-1.854,1.394-3.106,2.15-4.778c0.03-0.066,0.059-0.125,0.089-0.19c0.607-0.193,1.229-0.344,1.811-0.483
		c-0.318,0.076-0.742-0.275-1.203-0.766c0.729-1.378,1.53-2.414,3.01-3.516c1.605-1.196,3.498-2.027,5.234-3.011
		C146.484,194.273,143.661,190.525,143.1,190.844z"/>
	<path fill="#D2971C" d="M199.777,133.18c1.951-1.795,2.641-4.922,3.666-7.273c0.191-0.44-4.049-2.773-3.887-3.146
		c-0.961,2.206-1.695,4.501-3.02,6.526c-0.188,0.286-0.409,0.549-0.646,0.801c-0.854-0.658-1.638-1.222-1.666-1.202
		c-1.33,0.931-3.539,2.713-3.168,4.5c0.026,0.127,0.465,0.531,1.034,1.01c-0.106,0.141-0.213,0.282-0.318,0.416
		c-3.177-1.106-8.718,2.936-7.216,6.408c0.178,0.409,3.689,3.251,3.887,3.146c2.073-1.103,4.041-3.288,5.822-4.844
		c0.47-0.41,0.979-0.94,1.47-1.543c0.013,0.006,0.027,0.007,0.04,0.012c-0.012-0.005-0.022-0.014-0.035-0.019
		c0.759-0.932,1.467-2.038,1.917-3.157C198.395,134.319,199.11,133.793,199.777,133.18z"/>
	<path fill="#D2971C" d="M231.432,77.135c-2.066,1.375-2.852,4.767-4.021,6.88c-0.792,1.434-1.763,2.732-2.815,3.982
		c-0.532,0.633-0.972,1.341-1.415,2.041c-0.179-0.142-0.293-0.233-0.29-0.237c-1.159,1.545-1.935,3.296-2.815,5.005
		c-0.245,0.475-0.46,0.984-0.685,1.492c-0.284-0.227-0.512-0.354-0.625-0.287c-3.274,1.94-4.938,6.048-6.58,9.316
		c-0.776,1.545-1.606,3.061-2.445,4.57c-0.167,0.064-0.331,0.142-0.498,0.21c-0.708-0.55-1.281-0.995-1.268-1.014
		c-0.396,0.552-0.471,1.263-0.694,1.894c-0.003,0.008-0.004,0.016-0.007,0.023c-0.82,0.421-1.642,0.925-2.174,1.583
		c-0.012,0.014,0.838,0.714,1.746,1.45c0.109,0.106,0.249,0.226,0.412,0.354c-0.811,1.492-1.604,2.992-2.326,4.529
		c-0.185,0.394,4.04,2.819,3.887,3.146c1.486-3.163,3.335-6.081,5.002-9.125c1.109-0.413,2.263-0.715,3.414-0.958
		c-0.266,0.056-1.713-1.42-1.927-1.593c-0.025-0.021-0.069-0.061-0.118-0.106c0.061-0.125,0.125-0.248,0.185-0.375
		c1.302-2.769,2.721-6.273,4.907-8.749c0.653,0.579,1.196,1.024,1.287,0.945c1.225-1.074,1.637-2.765,2.393-4.162
		c0.464-0.857,0.881-1.729,1.33-2.583c0.055,0.031,0.097,0.048,0.109,0.036c1.035-1.027,1.587-2.391,2.479-3.547
		c0.996-1.29,2.037-2.48,2.921-3.858c1.469-2.29,2.206-6.182,4.518-7.72C234.934,80.537,231.876,76.84,231.432,77.135z"/>
	<path fill="#D2971C" d="M238.177,85.015c-0.454-0.375-0.911-0.747-1.369-1.118c-0.458-0.371-0.917-0.74-1.378-1.107
		c0.021,0.017-0.58-0.412-0.58-0.447c0.002,1.616-0.617,3.031-1.709,4.208c0.05-0.054,3.783,3.256,3.885,3.146
		c1.093-1.177,1.712-2.593,1.709-4.208C238.734,85.421,238.177,85.015,238.177,85.015z"/>
	<line fill="none" x1="237" y1="83.292" x2="236.583" y2="85.375"/>
	<path fill="#FFFFFF" d="M227.141,74.635c-0.919,1.011-1.366,2.298-1.875,3.542c-0.055,0.132,1.799,1.489,1.927,1.593
		c0.116,0.094,1.99,1.477,1.958,1.554c0.51-1.243,0.957-2.531,1.875-3.542C230.987,77.824,227.229,74.537,227.141,74.635z"/>
	<path fill="#FFFFFF" d="M237.537,59.995c0.016-0.03-0.175-0.201-0.432-0.414c-0.021-0.402,0.015-0.804,0.025-1.211
		c0.017-0.718-0.026-1.438-0.016-2.156c0-0.066-0.561-0.476-0.559-0.475c-0.454-0.375-0.911-0.747-1.369-1.118
		c-0.458-0.371-0.917-0.74-1.378-1.107c0.022,0.018-0.581-0.414-0.581-0.447c-0.009,0.629,0.007,1.258,0.015,1.887
		c0.008,0.655-0.098,1.309,0.032,1.957c0.009,0.045,0.126,0.146,0.25,0.243c-0.178,0.485-0.217,1.003-0.172,1.522
		c0.008,0.08,0.547,0.465,0.559,0.475c0.454,0.375,0.911,0.747,1.369,1.118c0.458,0.371,0.917,0.74,1.378,1.107
		c-0.012-0.01,0.576,0.401,0.581,0.447C237.185,61.194,237.241,60.563,237.537,59.995z"/>
	<path fill="none" stroke="#000000" stroke-miterlimit="10" d="M196.875,64.08C72.484,197.529,56.108,216.345,56.108,216.345
		S148.443-20.243,79.453,32.37C60.155,47.087,48.768,53.649,42.369,55.472c-1.779,154.166-18.062,190.259,2.589,185.263
		C66.561,235.509,321.266-69.369,196.875,64.08z"/>
	<path fill="none" stroke="#000000" stroke-miterlimit="10" d="M230.938,30.666c-0.938,36.667,23.062,33-51.271,115
		s-59,87.685-138,95.509"/>
	<path fill="none" stroke="#000000" stroke-miterlimit="10" d="M98.38,25.221c21.62,0.112,44.216-18.17,11.953,106.112
		c-9.337,35.97-9.337,35.97-9.337,35.97"/>
	<path fill="none" stroke="#000000" stroke-miterlimit="10" d="M145,89.5"/>
	<path d="M124.416,32.542c-0.062-0.248-0.143-0.497-0.248-0.749c-0.038-0.281-0.086-0.568-0.159-0.873
		c-0.336-1.406-1.033-2.35-1.9-2.923c-0.272-0.273-0.606-0.522-0.977-0.752c-0.769-1.064-1.996-1.808-3.678-1.861
		c-0.524-0.236-1.058-0.47-1.625-0.706c-1.228-0.51-2.355-0.43-3.304,0.021c-0.201,0.019-0.409,0.048-0.625,0.087
		c-0.212-0.043-0.424-0.1-0.634-0.17c-0.785-0.158-1.512-0.155-2.177-0.04c-0.92-0.296-1.968-0.375-2.825-0.054
		c-0.042,0.016-0.083,0.031-0.125,0.047c-0.323,0.09-0.625,0.218-0.916,0.364c-0.027-0.011-0.056-0.018-0.083-0.028
		c-0.001,0-0.002-0.001-0.004-0.002c-0.897-0.492-1.979-0.416-2.76,0.161c-0.584-0.137-1.355,0.102-1.826,0.36
		c-0.362,0.199-0.903,0.691-0.298,0.966c0.23,0.104,0.442,0.229,0.688,0.297c0.152,0.042,0.309,0.06,0.468,0.068
		c-0.103,0.91,0.283,1.865,1.079,2.377c-0.028,0.529,0.019,1.059,0.161,1.588c0.085,0.309,0.215,0.634,0.376,0.956
		c1.301,3.881,2.311,7.286,2.196,11.526c-0.119,4.409-0.815,8.642-1.095,12.986c-0.027,0.417,0.023,0.807,0.105,1.183
		c-0.374,0.501-0.653,1.12-0.801,1.863c-0.569,2.859-2.127,8.007-1.719,12.009c-0.02,0.224-0.03,0.454-0.022,0.695
		c0.13,3.899-1.963,8.234-2.665,12.092c-0.764,4.196-2.709,8.481-2.975,12.706c-0.018,0.289-0.006,0.552-0.002,0.824
		c-2.464,4.239-3.366,10.345-4.25,14.322c-1.709,7.689-6.549,16.208-7.376,24.552c-0.006,0.011-0.015,0.02-0.021,0.031
		c-1.066,2.112-1.737,4.215-2.219,6.515c-0.097,0.464-0.169,0.93-0.239,1.396c-0.635,0.945-1.035,2.081-1.238,3.275
		c-0.15,0.184-0.3,0.367-0.429,0.563c-1.739,2.652-1.983,5.486-2.488,8.528c-0.146,0.88-0.47,1.765-0.651,2.643
		c-0.018,0.097-0.039,0.193-0.057,0.29c-0.344,0.416-0.665,0.871-0.929,1.414c-0.912,1.877-1.39,3.492-1.588,5.5
		c-0.492,0.707-0.895,1.547-1.168,2.541c-1.109,4.034-2.823,7.826-4.25,11.75c-0.288,0.79-0.438,1.541-0.477,2.247
		c-0.951,0.55-1.579,1.751-1.327,2.912c0.03,0.139,0.078,0.265,0.121,0.395c-0.385,0.447-0.697,0.946-0.908,1.395
		c-0.605,1.287-1.021,2.752-1.382,4.228c-0.457,1.083-0.676,2.232-0.831,3.455c-0.086,0.109-0.171,0.221-0.248,0.352
		c-0.461,0.788-0.776,1.587-1.002,2.472c-0.064,0.25-0.072,0.491-0.059,0.727c-0.814,1.54-1.63,3.079-2.564,4.552
		c-0.56,0.882-0.473,1.73-0.06,2.396c-0.188,0.121-0.33,0.261-0.395,0.408c-0.655,1.493-0.987,3.48-2.193,4.647
		c-0.447,0.431-0.3,0.977,0.268,1.153c-0.757,0.331-1.364,0.736-0.529,0.736c0.463,0,2.217-0.709,2.279-1.018
		c0.123-0.075,0.245-0.154,0.345-0.251c0.624-0.603,1.038-1.34,1.383-2.119c0.389-0.096,0.754-0.304,1.035-0.595
		c0.498-0.516,0.903-1.129,1.207-1.784c0.535-0.18,1-0.517,1.228-1.051c0.471-1.106,1.224-1.548,2.295-2.293
		c1.377-0.959,2.722-2.03,3.455-3.582c0.17-0.359,0.255-0.709,0.284-1.043c2.567-2.187,5.171-4.329,7.325-6.951
		c0.293-0.356,0.459-0.735,0.542-1.116c0.159-0.076,0.321-0.148,0.458-0.259c0.354-0.229,0.646-0.521,0.875-0.875
		c0.376-0.467,0.558-0.972,0.591-1.467c0.812-0.577,1.531-1.334,2.094-2.296c1.454-0.616,2.743-1.677,3.648-3.095
		c0.605-0.946,1.273-1.756,2.142-2.76c1.419-1.64,1.955-2.434,2.888-3.588c1.233-0.579,2.177-1.486,2.839-2.57
		c2.294-1.177,3.988-3.069,4.982-5.493c1.581-1.548,2.374-3.711,2.237-5.88c0.184-0.587,0.409-1.163,0.632-1.733
		c0.393-1.002,0.857-1.982,1.16-3.017c-0.619,2.109,0.424-0.973,0.693-1.656c0.369-0.938,0.424-2.021,0.317-3.076
		c0.083-0.212,0.174-0.42,0.239-0.643c0.333-1.132,0.537-2.282,0.706-3.441c0.646-1.468,1.194-2.926,1.626-4.469
		c0.551-1.968,0.947-3.983,0.992-6.006c0.518-0.913,0.897-1.926,1.043-3.035c0.733-1.414,1.019-3.068,0.855-4.673
		c0.069-0.185,0.144-0.376,0.207-0.554c1.109-3.148,2.057-6.476,2.946-9.698c0.24-0.869,0.293-1.73,0.2-2.561
		c0.299-0.766,0.485-1.581,0.547-2.409c0.575-1.353,1.093-2.754,1.146-4.398c0.002-0.077-0.004-0.151-0.004-0.227
		c0.121-0.299,0.242-0.596,0.361-0.904c0.742-1.922,0.711-4.041,1.375-6c0.105-0.309,0.186-0.611,0.252-0.909
		c0.479-1.114,0.832-2.251,0.998-3.341c0.125-0.817,0.128-1.613,0.039-2.377c2.713-10.96,6.772-22.331,6.604-33.492
		c-0.006-0.413-0.06-0.794-0.139-1.155c0.34-0.89,0.617-1.806,0.576-2.782c-0.015-0.363-0.076-0.704-0.157-1.034
		c0.422-0.513,0.743-1.14,0.916-1.887c0.506-2.188,0.12-3.99,0.112-6.186c-0.01-2.788,0.179-5.598,0.234-8.407
		C126.526,39.112,125.928,35.143,124.416,32.542z"/>
	<path fill="none" stroke="#000000" stroke-miterlimit="10" d="M57.833,213.5c0.21-0.249,0.332-0.486,0.289-0.827
		c-0.04-0.012-0.081-0.014-0.122-0.006"/>
	<path fill="none" stroke="#000000" stroke-miterlimit="10" d="M58.708,212.542c-0.385,0.135-0.421,0.25-0.593,0.584
		c-0.225,0.438-0.428,0.509-0.824,0.707"/>
	<path d="M233.52,59.805c0.41-2.24,0.524-4.521-0.308-6.032c0.005-0.003,0.007-0.009,0.013-0.012
		c-0.001,0.001-0.022-0.016-0.03-0.021c-0.021-0.039-0.041-0.08-0.062-0.12c0-0.005-0.002-0.01-0.002-0.015
		c0-0.003-0.013-0.013-0.015-0.017c-0.003-0.004-0.004-0.009-0.007-0.014c-0.154-0.243-0.577-0.555-1.086-0.892
		c-0.273-0.224-0.546-0.448-0.82-0.67c-0.458-0.371-0.917-0.74-1.378-1.107c0.005,0.003-0.029-0.02-0.083-0.058l-0.518-0.419
		c0.008,0.012,0.014,0.026,0.021,0.039c0,0.011,0.004,0.021,0.004,0.031c-0.005-0.023-0.025-0.049-0.024-0.07
		c-0.023,0.885,0.004,1.769,0.047,2.652c-0.434-0.35-1.062-0.768-1.662-1.168c-0.559-0.453-1.118-0.906-1.678-1.358
		c-0.327,0.639-0.621,1.295-0.916,1.952c-0.408-0.303-0.869-0.633-1.3-0.943l-1.45-1.175c-0.442,0.721-0.896,1.457-1.358,2.192
		c-0.311-0.254-0.621-0.509-0.934-0.762c-0.458-0.371-0.917-0.74-1.378-1.107c0.031,0.025-0.552-0.465-0.58-0.447
		c-0.034,0.022-0.063,0.05-0.097,0.073c-0.016-0.015-0.03-0.03-0.028-0.033c-0.013,0.026-0.022,0.052-0.032,0.079
		c-0.207,0.152-0.4,0.318-0.588,0.493c-0.144,0.116-0.28,0.24-0.425,0.354c-0.19-0.156-0.308-0.269-0.289-0.301
		c-0.519,0.889-1.095,1.742-1.661,2.602c-0.163-0.123-0.497-0.378-0.495-0.383c-0.275,0.817-0.979,1.369-1.313,2.156
		c-0.004,0.011,0.076,0.083,0.178,0.167c-0.158,0.08-0.317,0.158-0.49,0.208c0.012-0.003,0.124,0.091,0.242,0.194
		c-1.802,1.554-2.979,3.491-4.627,5.223c0.01-0.011,0.117,0.069,0.279,0.2c-2.621,2.409-5.039,5.028-7.195,7.8l0.313,0.253
		c0.053,0.044,0.112,0.095,0.176,0.148c-1.62,1.252-2.861,3.172-4.295,4.572c-0.159-0.155-0.254-0.301-0.236-0.43
		c-0.219,1.579-1.269,2.547-2.281,3.718c-1.285,1.486-2.627,3.109-4.057,4.449c-1.57,1.472-2.639,3.479-4.067,5.13
		c-1.329,1.535-2.474,2.978-3.572,4.633c-0.005-0.004-0.022-0.017-0.022-0.017c-4.499,5.685-9.759,10.507-14.125,16.25
		c0.07,0.057,0.141,0.114,0.211,0.171c-0.074,0.161-0.154,0.319-0.241,0.477c-0.663,0.219-1.092,0.464-1.095,1.269
		c0,0.01,0.016,0.031,0.025,0.047c-0.314,0.128-0.619,0.286-0.941,0.411c0.008-0.003,0.131,0.101,0.258,0.21
		c-0.73,0.499-1.29,1.181-1.508,2.081c-0.001,0.005,0.012,0.022,0.018,0.033c-1.396,1.271-2.894,2.47-4.018,3.592
		c0.023-0.023,0.251,0.155,0.581,0.434c-1.842,1.181-3.234,3.13-4.599,5.043c-1.339,1.202-2.423,2.441-3.304,4.041
		c-0.09,0.076-0.17,0.154-0.263,0.229c-0.069,0.057-0.134,0.134-0.198,0.208c-0.613,0.438-1.975,1.471-1.996,2.253
		c-0.674,0.348-0.898,0.729-1.181,1.581c-0.122,0.149-0.24,0.306-0.359,0.465c-0.571,0.765-1.415,1.266-2.141,1.868
		c0.009-0.008,0.134,0.089,0.314,0.235c-0.699,0.711-1.393,1.421-2.02,2.155c-1.973,0.646-3.382,4.092-4.511,5.403
		c-0.028,0.033-0.058,0.074-0.086,0.108c-0.222-0.173-0.389-0.293-0.405-0.277c-0.317,0.297-0.572,0.66-0.666,1.083
		c-0.42,0.515-0.748,1.098-1.293,1.501c0.012-0.009,0.113,0.066,0.252,0.176c-0.37,0.363-0.752,0.709-1.153,1.028
		c-1.214,0.966-2.86,1.837-3.099,3.437c-0.596,0.228-0.942,0.706-1.416,1.317c-0.007,0.009,0.092,0.098,0.254,0.235
		c-1.771,0.616-3.91,3.208-4.764,4.201c-2.443,2.841-4.613,5.989-6.99,8.907c-2.645,3.248-5.897,5.672-8.146,9.212
		c-0.09-0.065-0.143-0.103-0.146-0.1c-2.672,2.469-5.125,5.461-7.484,8.229c-1.067,1.252-2.273,2.254-3.213,3.623
		c-0.89,1.295-2.229,2.351-2.969,3.689c0,0,0.051,0.046,0.135,0.122c-0.162,0.151-0.323,0.304-0.483,0.458
		c-0.009,0-0.018,0.003-0.027,0.003c0.008-0.002,0.017,0.002,0.024,0c-1.23,1.189-2.416,2.457-3.546,3.862
		c-1.564,1.944-3.415,3.579-5.069,5.412c-1.479,0.827-2.31,2.175-3.247,3.507c-1.029,0.854-2.019,1.756-2.93,2.754
		c-0.192,0.126-0.384,0.252-0.566,0.38c-0.828,0.582-1.074,1.604-2.042,2.041c0.037-0.017,0.169,0.069,0.348,0.209
		c-0.755,0.516-1.46,1.116-2.086,1.828c-0.644,0.732-1.128,1.599-1.681,2.397c-1.22,0.453-2.073,1.354-2.552,2.438
		c-1.553,1.367-2.609,3.094-4.205,4.337c-0.512,0.398-0.875,0.91-1.114,1.479c-0.935,0.671-1.775,1.444-2.402,2.323
		c-0.629,0.227-1.233,0.599-1.776,1.154c-1.502,1.538-3.71,3.665-5.245,6.006c-0.356,0.196-0.708,0.438-1.047,0.744
		c-0.912,0.82-1.975,1.665-3.029,2.302c-1.168,0.705-1.859,1.65-2.176,2.669c-0.524,0.479-1.334,1.192-1.401,1.255
		c-0.06,0.056-0.622,0.55-1.106,0.995c-0.016-0.05-0.033-0.088-0.048-0.141c0.044,0.151-1.707,1.558-1.846,1.687
		c-0.047,0.044-0.242,0.205-0.482,0.407c-0.165-0.003-0.331-0.002-0.494-0.009c0.124-0.134,0.265-0.278,0.322-0.293
		c-0.165,0.043-0.307,0.089-0.458,0.167c-0.113,0.059-0.241,0.182-0.357,0.298c-0.034-0.004-0.067-0.001-0.102-0.007
		c-0.062-0.012-0.553,0.491-0.548,0.486c-0.435,0.397-0.867,0.799-1.298,1.2c-0.431,0.402-0.861,0.805-1.288,1.211
		c0.023-0.021-0.494,0.519-0.524,0.513c0.43,0.079,0.832-0.007,1.224-0.153c1.03-0.001,2.085-0.134,3.067-0.418
		c0.406,0.334,0.97,0.413,1.847,0.212c0.864-0.199,1.731-0.355,2.598-0.508c0.048,0.053,0.09,0.108,0.14,0.159
		c0.009,0.009,0.124-0.086,0.294-0.237c0.96-0.169,1.919-0.337,2.873-0.555c0.068-0.016,0.141-0.048,0.217-0.091
		c1.302,0.702,2.921,0.796,4.593-0.213c0.182-0.109,0.356-0.233,0.535-0.348c1.396,0.046,2.813-0.072,4.236-0.277
		c3.041,0.086,6.366-0.766,8.785-1.455c0.652-0.186,1.209-0.488,1.675-0.875c2.144-0.23,4.277-0.566,6.448-0.982
		c2.319-0.444,4.604-1.004,6.876-1.643c1.801-0.506,3.101-1.967,4.833-2.541c0.941-0.312,1.674-0.808,2.219-1.413
		c1.925-0.131,3.893-1.189,5.392-2.298c0.228-0.169,0.429-0.35,0.617-0.537c1.505-0.276,2.565-1.163,3.181-2.304
		c1.037-0.558,2.046-1.17,2.96-1.952c1.354-1.16,2.272-2.149,3.763-3.201c0.702-0.452,1.31-1.007,1.825-1.663
		c0.229-0.249,1.674-1.525,1.351-1.467c0.455-0.469,0.888-0.99,1.306-1.545c0.13-0.173,0.222-0.349,0.321-0.524
		c0.758-0.539,1.564-1.056,2.093-1.348c1.321-0.729,2.05-1.761,2.331-2.873c0.06-0.056,0.123-0.097,0.182-0.156
		c2.22-2.234,4.291-4.551,6.312-6.966c1.193-1.427,2.731-2.373,3.801-3.913c0.921-1.326,2.08-2.425,2.92-3.883
		c0.245-0.426,0.414-0.847,0.53-1.261c0.545-0.389,1.052-0.843,1.521-1.311c0.578-0.577,0.962-1.274,1.187-2.015
		c0.418-0.358,0.766-0.787,1.046-1.26c1.163-0.597,1.924-1.642,2.282-2.828c0.386-0.379,0.757-0.759,1.152-1.139
		c1.788-1.718,3.232-3.698,4.649-5.7c0.118,0.08,0.196,0.119,0.217,0.099c0.493-0.483,0.671-1.12,1.203-1.58
		c0.629-0.542,1.295-1.021,1.899-1.596c1.213-1.154,2.443-2.591,3.147-4.115c0.007-0.014-0.013-0.04-0.017-0.059
		c0.628-0.86,1.28-1.691,2.058-2.437c0.823-0.789,1.652-1.438,1.935-2.555c3.429-3.807,6.756-7.721,10.122-11.595
		c0.178,0.124,0.31,0.189,0.359,0.149c1.616-1.277,2.775-2.548,3.668-4.417c0.082-0.171,0.19-0.37,0.307-0.576
		c1.265-0.954,2.992-1.463,3.193-3.257c0.001-0.011-0.033-0.044-0.067-0.076c0.078-0.031,0.156-0.073,0.233-0.091
		c-0.041,0.01-0.123-0.032-0.218-0.092c0.477-0.517,0.94-1.041,1.406-1.564c0.146,0.082,0.269,0.115,0.353,0.072
		c0.967-0.492,1.416-1.517,1.951-2.413c0.623-1.042,1.798-1.572,2.496-2.588c0.711-1.036,1.825-1.319,2.397-2.465
		c0.138-0.274,0.234-0.541,0.31-0.805c0.287,0.225,0.465,0.399,0.43,0.479c0.749-1.705,2.377-2.602,3.291-4.25
		c0.421-0.758,1.752-1.582,2.359-2.184c0.85-0.843,1.412-1.978,2.021-2.991c1.161-1.935,3.29-3.07,4.577-4.983
		c1.657-2.465,3.967-4.267,5.46-6.926c0.001-0.002-0.002-0.007-0.001-0.009c0.526-0.764,1.062-1.517,1.598-2.268
		c0.207,0.157,0.365,0.26,0.403,0.237c1.193-0.733,1.523-2.074,1.932-3.331c3.098-1.225,5.588-6.328,7.368-8.792
		c2.948-4.081,5.754-8.263,8.532-12.459c0.021-0.033-0.126-0.176-0.369-0.38c1.989-2.492,7.332-9.481,6.299-12.414
		c1.378-3.032,2.347-6.067,2.904-9.395C234.026,64.982,233.791,62.394,233.52,59.805z"/>
</g>
</svg>
